# This file uses centimeters as units for non-parametric coordinates.

mtllib BasicTrashCan.mtl
g default
v 3.136653 0.053051 0.420370
v 3.557023 0.053051 0.600498
v 3.977393 0.053051 0.420370
v 3.136653 1.243668 0.420370
v 3.557023 1.243668 0.600498
v 3.977393 1.243668 0.420370
v 3.136653 1.516810 0.420370
v 3.557023 1.516810 0.600498
v 3.977393 1.516810 0.420370
v 2.956525 1.516810 0.000000
v 3.557023 1.646523 0.000000
v 4.157521 1.516810 0.000000
v 3.136653 1.516810 -0.420370
v 3.557023 1.516810 -0.600498
v 3.977393 1.516810 -0.420370
v 3.136653 1.243668 -0.420370
v 3.557023 1.243668 -0.600498
v 3.977393 1.243668 -0.420370
v 3.136653 0.053051 -0.420370
v 3.557023 0.053051 -0.600498
v 3.977393 0.053051 -0.420370
v 2.956525 0.053051 0.000000
v 3.557023 0.053051 0.000000
v 4.157521 0.053051 0.000000
v 4.157521 1.243668 0.000000
v 2.956525 1.243668 0.000000
v 2.833800 1.296749 0.000000
v 3.050741 1.296749 -0.506282
v 3.557023 1.296749 -0.723223
v 4.063305 1.296749 -0.506282
v 4.280246 1.296749 0.000000
v 4.063305 1.296749 0.506282
v 3.557023 1.296749 0.723223
v 3.050741 1.296749 0.506282
v 2.842931 1.387579 0.000000
v 3.057133 1.387579 -0.499890
v 3.557023 1.387579 -0.714092
v 4.056913 1.387579 -0.499890
v 4.271115 1.387579 0.000000
v 4.056913 1.387579 0.499890
v 3.557023 1.387579 0.714092
v 3.057133 1.387579 0.499890
vt 0.375000 0.000000
vt 0.500000 0.000000
vt 0.625000 0.000000
vt 0.375000 0.125000
vt 0.500000 0.125000
vt 0.625000 0.125000
vt 0.375000 0.250000
vt 0.500000 0.250000
vt 0.625000 0.250000
vt 0.375000 0.375000
vt 0.500000 0.375000
vt 0.625000 0.375000
vt 0.375000 0.500000
vt 0.500000 0.500000
vt 0.625000 0.500000
vt 0.375000 0.625000
vt 0.500000 0.625000
vt 0.625000 0.625000
vt 0.375000 0.750000
vt 0.500000 0.750000
vt 0.625000 0.750000
vt 0.375000 0.875000
vt 0.500000 0.875000
vt 0.625000 0.875000
vt 0.375000 1.000000
vt 0.500000 1.000000
vt 0.625000 1.000000
vt 0.875000 0.000000
vt 0.750000 0.000000
vt 0.875000 0.125000
vt 0.750000 0.125000
vt 0.875000 0.250000
vt 0.750000 0.250000
vt 0.125000 0.000000
vt 0.250000 0.000000
vt 0.125000 0.125000
vt 0.250000 0.125000
vt 0.125000 0.250000
vt 0.250000 0.250000
vt 0.250000 0.149292
vt 0.125000 0.149292
vt 0.375000 0.600708
vt 0.500000 0.600708
vt 0.625000 0.600708
vt 0.875000 0.149292
vt 0.750000 0.149292
vt 0.625000 0.149292
vt 0.500000 0.149292
vt 0.375000 0.149292
vt 0.250000 0.190859
vt 0.125000 0.190859
vt 0.375000 0.559141
vt 0.500000 0.559141
vt 0.625000 0.559141
vt 0.875000 0.190859
vt 0.750000 0.190859
vt 0.625000 0.190859
vt 0.500000 0.190859
vt 0.375000 0.190859
vn -0.393862 0.000000 0.919169
vn 0.000000 0.000000 1.000000
vn 0.000000 -0.131185 0.991358
vn -0.391043 -0.119438 0.912590
vn 0.393862 0.000000 0.919169
vn 0.391043 -0.119438 0.912590
vn -0.000000 -0.524180 0.851608
vn -0.341646 -0.497567 0.797311
vn 0.341646 -0.497567 0.797311
vn -0.150738 0.977014 0.150738
vn 0.000000 0.988306 0.152481
vn 0.000000 1.000000 0.000000
vn -0.152481 0.988306 0.000000
vn 0.150738 0.977014 0.150738
vn 0.152481 0.988307 0.000000
vn 0.000000 0.988306 -0.152481
vn -0.150738 0.977014 -0.150738
vn 0.150738 0.977014 -0.150738
vn -0.341646 -0.497567 -0.797311
vn -0.000000 -0.524180 -0.851608
vn 0.000000 -0.131185 -0.991358
vn -0.391043 -0.119438 -0.912590
vn 0.341646 -0.497567 -0.797311
vn 0.391043 -0.119438 -0.912590
vn 0.000000 0.000000 -1.000000
vn -0.393862 0.000000 -0.919169
vn 0.393862 0.000000 -0.919169
vn 0.000000 -1.000000 0.000000
vn 0.000000 -1.000000 0.000000
vn 0.000000 -1.000000 -0.000000
vn 0.000000 -1.000000 0.000000
vn 0.000000 -1.000000 0.000000
vn 0.000000 -1.000000 -0.000000
vn 0.000000 -1.000000 -0.000000
vn 0.000000 -1.000000 -0.000000
vn 0.000000 -1.000000 -0.000000
vn 1.000000 0.000000 0.000000
vn 0.919169 0.000000 -0.393863
vn 0.912590 -0.119438 -0.391043
vn 0.991358 -0.131185 -0.000000
vn 0.919169 0.000000 0.393863
vn 0.912590 -0.119438 0.391043
vn 0.797311 -0.497567 -0.341647
vn 0.851608 -0.524179 -0.000000
vn 0.797311 -0.497567 0.341646
vn -0.919169 0.000000 -0.393863
vn -1.000000 0.000000 0.000000
vn -0.991358 -0.131185 0.000000
vn -0.912590 -0.119438 -0.391043
vn -0.919169 0.000000 0.393863
vn -0.912590 -0.119438 0.391043
vn -0.851608 -0.524179 0.000000
vn -0.797311 -0.497567 -0.341646
vn -0.797311 -0.497567 0.341647
vn -0.894238 0.447591 0.000000
vn -0.834221 0.419876 -0.357462
vn -0.357462 0.419876 -0.834221
vn -0.000000 0.447591 -0.894238
vn 0.357462 0.419876 -0.834221
vn 0.834221 0.419876 -0.357462
vn 0.894238 0.447591 -0.000000
vn 0.834221 0.419876 0.357462
vn 0.357462 0.419876 0.834221
vn -0.000000 0.447591 0.894238
vn -0.357462 0.419876 0.834221
vn -0.834221 0.419876 0.357462
vn -0.751085 0.660206 0.000000
vn -0.714969 0.628460 -0.306363
vn -0.306363 0.628460 -0.714969
vn 0.000000 0.660206 -0.751085
vn 0.306363 0.628460 -0.714969
vn 0.714969 0.628460 -0.306363
vn 0.751085 0.660206 0.000000
vn 0.714969 0.628460 0.306363
vn 0.306363 0.628460 0.714969
vn 0.000000 0.660206 0.751085
vn -0.306363 0.628460 0.714969
vn -0.714969 0.628460 0.306363
s 1
g pCube1
usemtl initialShadingGroup
f 1/1/1 2/2/2 5/5/3 4/4/4
f 2/2/2 3/3/5 6/6/6 5/5/3
f 4/4/4 5/5/3 33/48/7 34/49/8
f 5/5/3 6/6/6 32/47/9 33/48/7
s 2
f 7/7/10 8/8/11 11/11/12 10/10/13
f 8/8/11 9/9/14 12/12/15 11/11/12
f 10/10/13 11/11/12 14/14/16 13/13/17
f 11/11/12 12/12/15 15/15/18 14/14/16
s 3
f 28/42/19 29/43/20 17/17/21 16/16/22
f 29/43/20 30/44/23 18/18/24 17/17/21
f 16/16/22 17/17/21 20/20/25 19/19/26
f 17/17/21 18/18/24 21/21/27 20/20/25
s 4
f 19/19/28 20/20/29 23/23/30 22/22/31
f 20/20/29 21/21/32 24/24/33 23/23/30
f 22/22/31 23/23/30 2/26/34 1/25/35
f 23/23/30 24/24/33 3/27/36 2/26/34
s 5
f 24/29/37 21/28/38 18/30/39 25/31/40
f 3/3/41 24/29/37 25/31/40 6/6/42
f 25/31/40 18/30/39 30/45/43 31/46/44
f 6/6/42 25/31/40 31/46/44 32/47/45
s 6
f 19/34/46 22/35/47 26/37/48 16/36/49
f 22/35/47 1/1/50 4/4/51 26/37/48
f 16/36/49 26/37/48 27/40/52 28/41/53
f 26/37/48 4/4/51 34/49/54 27/40/52
f 28/41/53 27/40/52 35/50/55 36/51/56
s 3
f 36/52/57 37/53/58 29/43/20 28/42/19
f 37/53/58 38/54/59 30/44/23 29/43/20
s 5
f 31/46/44 30/45/43 38/55/60 39/56/61
f 32/47/45 31/46/44 39/56/61 40/57/62
s 1
f 33/48/7 32/47/9 40/57/63 41/58/64
f 34/49/8 33/48/7 41/58/64 42/59/65
s 6
f 27/40/52 34/49/54 42/59/66 35/50/55
f 36/51/56 35/50/55 10/39/67 13/38/68
s 3
f 13/13/69 14/14/70 37/53/58 36/52/57
f 14/14/70 15/15/71 38/54/59 37/53/58
s 5
f 39/56/61 38/55/60 15/32/72 12/33/73
f 40/57/62 39/56/61 12/33/73 9/9/74
s 1
f 41/58/64 40/57/63 9/9/75 8/8/76
f 42/59/65 41/58/64 8/8/76 7/7/77
s 6
f 35/50/55 42/59/66 7/7/78 10/39/67
