# This file uses centimeters as units for non-parametric coordinates.

mtllib aimArrow.mtl
g default
v 0.000000 -0.046315 0.281482
v 0.999346 -0.046315 0.722222
v 0.000000 0.046315 0.281482
v 0.999346 0.046315 0.722222
v 0.000000 0.046315 -0.281482
v 0.999346 0.046315 -0.722222
v 0.000000 -0.046315 -0.281482
v 0.999346 -0.046315 -0.722222
v 1.000654 0.046315 -0.281482
v 1.000654 -0.046315 -0.281482
v 1.000654 -0.046315 0.281482
v 1.000654 0.046315 0.281482
v 2.005949 0.046315 -0.004642
v 1.000654 0.046315 -0.002613
v 0.000000 0.046315 -0.002613
v 0.000000 -0.046315 -0.002613
v 1.000654 -0.046315 -0.002613
v 2.005949 -0.046315 -0.004642
vt 0.375000 0.000000
vt 0.625000 0.000000
vt 0.375000 0.250000
vt 0.625000 0.250000
vt 0.375000 0.500000
vt 0.625000 0.500000
vt 0.375000 0.750000
vt 0.625000 0.750000
vt 0.375000 1.000000
vt 0.625000 1.000000
vt 0.875000 0.000000
vt 0.875000 0.250000
vt 0.125000 0.000000
vt 0.125000 0.250000
vt 0.500000 0.500000
vt 0.500000 0.750000
vt 0.500000 0.000000
vt 0.500000 1.000000
vt 0.500000 0.250000
vt 0.625000 0.376160
vt 0.751160 0.250000
vt 0.500000 0.376160
vt 0.248840 0.250000
vt 0.375000 0.376160
vt 0.248840 0.000000
vt 0.375000 0.873840
vt 0.500000 0.873840
vt 0.625000 0.873840
vt 0.751160 0.000000
vn 0.000000 0.000000 1.000000
vn -0.403527 0.000000 0.914968
vn -0.403527 0.000000 0.914968
vn 0.000000 0.000000 1.000000
vn 0.000000 1.000000 0.000000
vn 0.000000 1.000000 0.000000
vn 0.000000 1.000000 0.000000
vn 0.000000 1.000000 0.000000
vn 0.000000 0.000000 -1.000000
vn -0.403527 0.000000 -0.914968
vn -0.403527 0.000000 -0.914968
vn 0.000000 0.000000 -1.000000
vn 0.000000 -1.000000 -0.000000
vn 0.000000 -1.000000 -0.000000
vn 0.000000 -1.000000 -0.000000
vn 0.000000 -1.000000 0.000000
vn 0.585423 0.000000 0.810728
vn 1.000000 0.000001 0.000000
vn 1.000000 0.000001 0.000000
vn 0.585423 0.000000 0.810728
vn -1.000000 0.000000 0.000000
vn -1.000000 0.000000 0.000000
vn -1.000000 0.000000 0.000000
vn -1.000000 0.000000 0.000000
vn -0.999996 0.000000 0.002967
vn -0.999996 0.000000 0.002967
vn 0.000000 -1.000000 -0.000000
vn 0.000000 -1.000000 -0.000000
vn -0.999996 0.000000 -0.002967
vn -0.999996 0.000000 -0.002967
vn 0.000000 1.000000 0.000000
vn 0.000000 1.000000 0.000000
vn 0.000000 1.000000 0.000000
vn 0.000000 1.000000 0.000000
vn 0.000000 1.000000 0.000000
vn -1.000000 0.000000 0.000000
vn -1.000000 0.000000 0.000000
vn 0.000000 -1.000000 -0.000000
vn 0.000000 -1.000000 -0.000000
vn 0.000000 -1.000000 0.000000
vn 0.580476 0.000001 -0.814277
vn 0.580476 0.000001 -0.814277
s 1
g initialShadingGroup pCube1
f 1/1/1 11/17/2 12/19/3 3/3/4
s 2
f 3/3/5 12/19/6 14/22/7 15/24/8
s 3
f 5/5/9 9/15/10 10/16/11 7/7/12
s 4
f 16/26/13 17/27/14 11/18/15 1/9/16
s 5
f 2/2/17 18/29/18 13/21/19 4/4/20
s 6
f 16/25/21 1/1/22 3/3/23 15/23/24
s 3
f 9/15/10 6/6/25 8/8/26 10/16/11
s 4
f 11/18/15 17/27/14 18/28/27 2/10/28
s 1
f 12/19/3 11/17/2 2/2/29 4/4/30
s 2
f 14/22/7 12/19/6 4/4/31 13/20/32
f 9/15/33 14/22/7 13/20/32 6/6/34
f 15/24/8 14/22/7 9/15/33 5/5/35
s 6
f 7/13/36 16/25/21 15/23/24 5/14/37
s 4
f 7/7/38 10/16/39 17/27/14 16/26/13
f 18/28/27 17/27/14 10/16/39 8/8/40
s 5
f 13/21/19 18/29/18 8/11/41 6/12/42
