# This file uses centimeters as units for non-parametric coordinates.

mtllib aimCone2.mtl
g default
v 3.564542 0.000000 -2.589792
v 3.394895 0.000000 -2.808501
v 3.211848 0.000000 -3.016126
v 3.016126 0.000000 -3.211848
v 2.808501 0.000000 -3.394895
v 2.589792 0.000000 -3.564542
v 2.360862 0.000000 -3.720123
v 2.122615 0.000000 -3.861022
v 1.875991 0.000000 -3.986683
v 1.621963 0.000000 -4.096611
v 1.361534 0.000000 -4.190371
v 1.095732 0.000000 -4.267594
v 0.825605 0.000000 -4.327974
v 0.552221 0.000000 -4.371274
v 0.276656 0.000000 -4.397323
v 0.000000 0.000000 -4.406017
v -0.276656 0.000000 -4.397323
v -0.552220 0.000000 -4.371275
v -0.825605 0.000000 -4.327975
v -1.095732 0.000000 -4.267594
v -1.361534 0.000000 -4.190372
v -1.621963 0.000000 -4.096611
v -1.875991 0.000000 -3.986684
v -2.122615 0.000000 -3.861022
v -2.360862 0.000000 -3.720123
v -2.589792 0.000000 -3.564542
v -2.808501 0.000000 -3.394895
v -3.016127 0.000000 -3.211848
v -3.211849 0.000000 -3.016126
v -3.394895 0.000000 -2.808501
v -3.564543 0.000000 -2.589792
v 0.000000 0.000000 0.000000
v 3.564542 0.049616 -2.589792
v 3.394895 0.049616 -2.808501
v 0.000000 0.049616 0.000000
v 3.211848 0.049616 -3.016126
v 3.016126 0.049616 -3.211848
v 2.808501 0.049616 -3.394895
v 2.589792 0.049616 -3.564542
v 2.360862 0.049616 -3.720123
v 2.122615 0.049616 -3.861022
v 1.875991 0.049616 -3.986683
v 1.621963 0.049616 -4.096611
v 1.361534 0.049616 -4.190371
v 1.095732 0.049616 -4.267594
v 0.825605 0.049616 -4.327974
v 0.552221 0.049616 -4.371274
v 0.276656 0.049616 -4.397323
v 0.000000 0.049616 -4.406017
v -0.276656 0.049616 -4.397323
v -0.552220 0.049616 -4.371275
v -0.825605 0.049616 -4.327975
v -1.095732 0.049616 -4.267594
v -1.361534 0.049616 -4.190372
v -1.621963 0.049616 -4.096611
v -1.875991 0.049616 -3.986684
v -2.122615 0.049616 -3.861022
v -2.360862 0.049616 -3.720123
v -2.589792 0.049616 -3.564542
v -2.808501 0.049616 -3.394895
v -3.016127 0.049616 -3.211848
v -3.211849 0.049616 -3.016126
v -3.394895 0.049616 -2.808501
v -3.564543 0.049616 -2.589792
vt 0.373591 0.935591
vt 0.379607 0.943348
vt 0.386099 0.950710
vt 0.393040 0.957651
vt 0.400403 0.964143
vt 0.408159 0.970159
vt 0.416277 0.975676
vt 0.424726 0.980673
vt 0.433472 0.985129
vt 0.442481 0.989028
vt 0.451716 0.992353
vt 0.461142 0.995091
vt 0.470722 0.997232
vt 0.480417 0.998768
vt 0.490189 0.999692
vt 0.500000 1.000000
vt 0.509811 0.999692
vt 0.519583 0.998768
vt 0.529278 0.997232
vt 0.538858 0.995091
vt 0.548284 0.992353
vt 0.557519 0.989028
vt 0.566528 0.985129
vt 0.575274 0.980673
vt 0.583723 0.975676
vt 0.591841 0.970159
vt 0.599598 0.964143
vt 0.606960 0.957651
vt 0.613901 0.950710
vt 0.620393 0.943347
vt 0.626409 0.935591
vt 0.500000 0.837500
vt 0.626409 0.935591
vt 0.620393 0.943347
vt 0.500000 0.837500
vt 0.613901 0.950710
vt 0.606960 0.957651
vt 0.599598 0.964143
vt 0.591841 0.970159
vt 0.583723 0.975676
vt 0.575274 0.980673
vt 0.566528 0.985129
vt 0.557519 0.989028
vt 0.548284 0.992353
vt 0.538858 0.995091
vt 0.529278 0.997232
vt 0.519583 0.998768
vt 0.509811 0.999692
vt 0.500000 1.000000
vt 0.490189 0.999692
vt 0.480417 0.998768
vt 0.470722 0.997232
vt 0.461142 0.995091
vt 0.451716 0.992353
vt 0.442481 0.989028
vt 0.433472 0.985129
vt 0.424726 0.980673
vt 0.416277 0.975676
vt 0.408159 0.970159
vt 0.400403 0.964143
vt 0.393040 0.957651
vt 0.386099 0.950710
vt 0.379607 0.943348
vt 0.373591 0.935591
vt 0.626409 0.935591
vt 0.620393 0.943347
vt 0.500000 0.837500
vt 0.613901 0.950710
vt 0.606960 0.957651
vt 0.599598 0.964143
vt 0.591841 0.970159
vt 0.583723 0.975676
vt 0.575274 0.980673
vt 0.566528 0.985129
vt 0.557519 0.989028
vt 0.548284 0.992353
vt 0.538858 0.995091
vt 0.529278 0.997232
vt 0.519583 0.998768
vt 0.509811 0.999692
vt 0.500000 1.000000
vt 0.490189 0.999692
vt 0.480417 0.998768
vt 0.470722 0.997232
vt 0.461142 0.995091
vt 0.451716 0.992353
vt 0.442481 0.989028
vt 0.433472 0.985129
vt 0.424726 0.980673
vt 0.416277 0.975676
vt 0.408159 0.970159
vt 0.400403 0.964143
vt 0.393040 0.957651
vt 0.386099 0.950710
vt 0.379607 0.943348
vt 0.373591 0.935591
vn 0.000000 1.000000 0.000000
vn 0.000000 1.000000 0.000000
vn 0.000000 1.000000 -0.000000
vn 0.000000 1.000000 0.000000
vn 0.000000 1.000000 -0.000000
vn 0.000000 1.000000 0.000000
vn 0.000000 1.000000 0.000000
vn 0.000000 1.000000 0.000000
vn 0.000000 1.000000 -0.000000
vn 0.000000 1.000000 -0.000000
vn 0.000000 1.000000 0.000000
vn 0.000000 1.000000 0.000000
vn 0.000000 1.000000 0.000000
vn 0.000000 1.000000 0.000000
vn 0.000000 1.000000 -0.000000
vn 0.000000 1.000000 -0.000000
vn 0.000000 1.000000 -0.000000
vn 0.000000 1.000000 -0.000000
vn 0.000000 1.000000 -0.000000
vn 0.000000 1.000000 0.000000
vn 0.000000 1.000000 0.000000
vn 0.000000 1.000000 0.000000
vn 0.000000 1.000000 0.000000
vn 0.000000 1.000000 -0.000000
vn 0.000000 1.000000 -0.000000
vn 0.000000 1.000000 0.000000
vn 0.000000 1.000000 0.000000
vn 0.000000 1.000000 0.000000
vn 0.000000 1.000000 0.000000
vn 0.000000 1.000000 0.000000
vn 0.000000 1.000000 0.000000
vn 0.000000 1.000000 0.000000
vn 0.000000 -1.000000 0.000000
vn 0.000000 -1.000000 0.000000
vn 0.000000 -1.000000 0.000000
vn 0.000000 -1.000000 0.000000
vn 0.000000 -1.000000 0.000000
vn 0.000000 -1.000000 0.000000
vn 0.000000 -1.000000 0.000000
vn 0.000000 -1.000000 0.000000
vn 0.000000 -1.000000 0.000000
vn 0.000000 -1.000000 0.000000
vn 0.000000 -1.000000 0.000000
vn 0.000000 -1.000000 0.000000
vn 0.000000 -1.000000 0.000000
vn 0.000000 -1.000000 0.000000
vn 0.000000 -1.000000 0.000000
vn 0.000000 -1.000000 0.000000
vn 0.000000 -1.000000 0.000000
vn 0.000000 -1.000000 0.000000
vn 0.000000 -1.000000 0.000000
vn 0.000000 -1.000000 0.000000
vn 0.000000 -1.000000 0.000000
vn 0.000000 -1.000000 0.000000
vn 0.000000 -1.000000 0.000000
vn 0.000000 -1.000000 0.000000
vn 0.000000 -1.000000 0.000000
vn 0.000000 -1.000000 0.000000
vn 0.000000 -1.000000 0.000000
vn 0.000000 -1.000000 0.000000
vn 0.000000 -1.000000 0.000000
vn 0.000000 -1.000000 0.000000
vn 0.000000 -1.000000 0.000000
vn 0.000000 -1.000000 0.000000
vn 0.790155 0.000000 -0.612907
vn 0.790155 0.000000 -0.612907
vn 0.790155 0.000000 -0.612907
vn 0.790155 0.000000 -0.612907
vn 0.587785 0.000000 0.809017
vn 0.587785 0.000000 0.809017
vn 0.587785 0.000000 0.809017
vn 0.587785 0.000000 0.809017
vn 0.750111 0.000000 -0.661312
vn 0.750111 0.000000 -0.661312
vn 0.750111 0.000000 -0.661312
vn 0.750111 0.000000 -0.661312
vn 0.707107 0.000000 -0.707107
vn 0.707107 0.000000 -0.707107
vn 0.707107 0.000000 -0.707107
vn 0.707107 0.000000 -0.707107
vn 0.661313 0.000000 -0.750110
vn 0.661313 0.000000 -0.750110
vn 0.661313 0.000000 -0.750110
vn 0.661313 0.000000 -0.750110
vn 0.612906 0.000000 -0.790156
vn 0.612906 0.000000 -0.790156
vn 0.612906 0.000000 -0.790156
vn 0.612906 0.000000 -0.790156
vn 0.562083 0.000000 -0.827081
vn 0.562083 0.000000 -0.827081
vn 0.562083 0.000000 -0.827081
vn 0.562083 0.000000 -0.827081
vn 0.509041 0.000000 -0.860743
vn 0.509041 0.000000 -0.860743
vn 0.509041 0.000000 -0.860743
vn 0.509041 0.000000 -0.860743
vn 0.453991 0.000000 -0.891006
vn 0.453991 0.000000 -0.891006
vn 0.453991 0.000000 -0.891006
vn 0.453991 0.000000 -0.891006
vn 0.397147 0.000000 -0.917755
vn 0.397147 0.000000 -0.917755
vn 0.397147 0.000000 -0.917755
vn 0.397147 0.000000 -0.917755
vn 0.338740 0.000000 -0.940880
vn 0.338740 0.000000 -0.940880
vn 0.338740 0.000000 -0.940880
vn 0.338740 0.000000 -0.940880
vn 0.278990 0.000000 -0.960294
vn 0.278990 0.000000 -0.960294
vn 0.278990 0.000000 -0.960294
vn 0.278990 0.000000 -0.960294
vn 0.218145 0.000000 -0.975917
vn 0.218145 0.000000 -0.975917
vn 0.218145 0.000000 -0.975917
vn 0.218145 0.000000 -0.975917
vn 0.156432 0.000000 -0.987689
vn 0.156432 0.000000 -0.987689
vn 0.156432 0.000000 -0.987689
vn 0.156432 0.000000 -0.987689
vn 0.094110 0.000000 -0.995562
vn 0.094110 0.000000 -0.995562
vn 0.094110 0.000000 -0.995562
vn 0.094110 0.000000 -0.995562
vn 0.031411 0.000000 -0.999507
vn 0.031411 0.000000 -0.999507
vn 0.031411 0.000000 -0.999507
vn 0.031411 0.000000 -0.999507
vn -0.031411 0.000000 -0.999507
vn -0.031411 0.000000 -0.999507
vn -0.031411 0.000000 -0.999507
vn -0.031411 0.000000 -0.999507
vn -0.094109 0.000000 -0.995562
vn -0.094109 0.000000 -0.995562
vn -0.094109 0.000000 -0.995562
vn -0.094109 0.000000 -0.995562
vn -0.156432 0.000000 -0.987689
vn -0.156432 0.000000 -0.987689
vn -0.156432 0.000000 -0.987689
vn -0.156432 0.000000 -0.987689
vn -0.218145 0.000000 -0.975916
vn -0.218145 0.000000 -0.975916
vn -0.218145 0.000000 -0.975916
vn -0.218145 0.000000 -0.975916
vn -0.278990 0.000000 -0.960294
vn -0.278990 0.000000 -0.960294
vn -0.278990 0.000000 -0.960294
vn -0.278990 0.000000 -0.960294
vn -0.338739 0.000000 -0.940880
vn -0.338739 0.000000 -0.940880
vn -0.338739 0.000000 -0.940880
vn -0.338739 0.000000 -0.940880
vn -0.397147 0.000000 -0.917755
vn -0.397147 0.000000 -0.917755
vn -0.397147 0.000000 -0.917755
vn -0.397147 0.000000 -0.917755
vn -0.453990 0.000000 -0.891007
vn -0.453990 0.000000 -0.891007
vn -0.453990 0.000000 -0.891007
vn -0.453990 0.000000 -0.891007
vn -0.509042 0.000000 -0.860741
vn -0.509042 0.000000 -0.860741
vn -0.509042 0.000000 -0.860741
vn -0.509042 0.000000 -0.860741
vn -0.562084 0.000000 -0.827080
vn -0.562084 0.000000 -0.827080
vn -0.562084 0.000000 -0.827080
vn -0.562084 0.000000 -0.827080
vn -0.612906 0.000000 -0.790156
vn -0.612906 0.000000 -0.790156
vn -0.612906 0.000000 -0.790156
vn -0.612906 0.000000 -0.790156
vn -0.661312 0.000000 -0.750111
vn -0.661312 0.000000 -0.750111
vn -0.661312 0.000000 -0.750111
vn -0.661312 0.000000 -0.750111
vn -0.707107 0.000000 -0.707107
vn -0.707107 0.000000 -0.707107
vn -0.707107 0.000000 -0.707107
vn -0.707107 0.000000 -0.707107
vn -0.750111 0.000000 -0.661312
vn -0.750111 0.000000 -0.661312
vn -0.750111 0.000000 -0.661312
vn -0.750111 0.000000 -0.661312
vn -0.790155 0.000000 -0.612907
vn -0.790155 0.000000 -0.612907
vn -0.790155 0.000000 -0.612907
vn -0.790155 0.000000 -0.612907
vn -0.587785 0.000000 0.809017
vn -0.587785 0.000000 0.809017
vn -0.587785 0.000000 0.809017
vn -0.587785 0.000000 0.809017
s 1
g initialShadingGroup pCylinder2
f 33/65/1 34/66/2 35/67/3
f 34/66/2 36/68/4 35/67/3
f 36/68/4 37/69/5 35/67/3
f 37/69/5 38/70/6 35/67/3
f 38/70/6 39/71/7 35/67/3
f 39/71/7 40/72/8 35/67/3
f 40/72/8 41/73/9 35/67/3
f 41/73/9 42/74/10 35/67/3
f 42/74/10 43/75/11 35/67/3
f 43/75/11 44/76/12 35/67/3
f 44/76/12 45/77/13 35/67/3
f 45/77/13 46/78/14 35/67/3
f 46/78/14 47/79/15 35/67/3
f 47/79/15 48/80/16 35/67/3
f 48/80/16 49/81/17 35/67/3
f 49/81/17 50/82/18 35/67/3
f 50/82/18 51/83/19 35/67/3
f 51/83/19 52/84/20 35/67/3
f 52/84/20 53/85/21 35/67/3
f 53/85/21 54/86/22 35/67/3
f 54/86/22 55/87/23 35/67/3
f 55/87/23 56/88/24 35/67/3
f 56/88/24 57/89/25 35/67/3
f 57/89/25 58/90/26 35/67/3
f 58/90/26 59/91/27 35/67/3
f 59/91/27 60/92/28 35/67/3
f 60/92/28 61/93/29 35/67/3
f 61/93/29 62/94/30 35/67/3
f 62/94/30 63/95/31 35/67/3
f 63/95/31 64/96/32 35/67/3
s 2
f 1/33/33 32/35/34 2/34/35
f 2/34/35 32/35/34 3/36/36
f 3/36/36 32/35/34 4/37/37
f 4/37/37 32/35/34 5/38/38
f 5/38/38 32/35/34 6/39/39
f 6/39/39 32/35/34 7/40/40
f 7/40/40 32/35/34 8/41/41
f 8/41/41 32/35/34 9/42/42
f 9/42/42 32/35/34 10/43/43
f 10/43/43 32/35/34 11/44/44
f 11/44/44 32/35/34 12/45/45
f 12/45/45 32/35/34 13/46/46
f 13/46/46 32/35/34 14/47/47
f 14/47/47 32/35/34 15/48/48
f 15/48/48 32/35/34 16/49/49
f 16/49/49 32/35/34 17/50/50
f 17/50/50 32/35/34 18/51/51
f 18/51/51 32/35/34 19/52/52
f 19/52/52 32/35/34 20/53/53
f 20/53/53 32/35/34 21/54/54
f 21/54/54 32/35/34 22/55/55
f 22/55/55 32/35/34 23/56/56
f 23/56/56 32/35/34 24/57/57
f 24/57/57 32/35/34 25/58/58
f 25/58/58 32/35/34 26/59/59
f 26/59/59 32/35/34 27/60/60
f 27/60/60 32/35/34 28/61/61
f 28/61/61 32/35/34 29/62/62
f 29/62/62 32/35/34 30/63/63
f 30/63/63 32/35/34 31/64/64
s off
f 1/31/65 2/30/66 34/66/67 33/65/68
f 32/32/69 1/31/70 33/65/71 35/67/72
f 2/30/73 3/29/74 36/68/75 34/66/76
f 3/29/77 4/28/78 37/69/79 36/68/80
f 4/28/81 5/27/82 38/70/83 37/69/84
f 5/27/85 6/26/86 39/71/87 38/70/88
f 6/26/89 7/25/90 40/72/91 39/71/92
f 7/25/93 8/24/94 41/73/95 40/72/96
f 8/24/97 9/23/98 42/74/99 41/73/100
f 9/23/101 10/22/102 43/75/103 42/74/104
f 10/22/105 11/21/106 44/76/107 43/75/108
f 11/21/109 12/20/110 45/77/111 44/76/112
f 12/20/113 13/19/114 46/78/115 45/77/116
f 13/19/117 14/18/118 47/79/119 46/78/120
f 14/18/121 15/17/122 48/80/123 47/79/124
f 15/17/125 16/16/126 49/81/127 48/80/128
f 16/16/129 17/15/130 50/82/131 49/81/132
f 17/15/133 18/14/134 51/83/135 50/82/136
f 18/14/137 19/13/138 52/84/139 51/83/140
f 19/13/141 20/12/142 53/85/143 52/84/144
f 20/12/145 21/11/146 54/86/147 53/85/148
f 21/11/149 22/10/150 55/87/151 54/86/152
f 22/10/153 23/9/154 56/88/155 55/87/156
f 23/9/157 24/8/158 57/89/159 56/88/160
f 24/8/161 25/7/162 58/90/163 57/89/164
f 25/7/165 26/6/166 59/91/167 58/90/168
f 26/6/169 27/5/170 60/92/171 59/91/172
f 27/5/173 28/4/174 61/93/175 60/92/176
f 28/4/177 29/3/178 62/94/179 61/93/180
f 29/3/181 30/2/182 63/95/183 62/94/184
f 30/2/185 31/1/186 64/96/187 63/95/188
f 31/1/189 32/32/190 35/67/191 64/96/192
