# This file uses centimeters as units for non-parametric coordinates.

mtllib BasicBarricade.mtl
g default
v -0.176855 1.642189 -3.640439
v 0.000000 1.601227 -3.640439
v 0.176855 1.642189 -3.640439
v -0.240014 1.756888 -3.640439
v 0.000000 1.756888 -3.640439
v 0.240014 1.756888 -3.640439
v -0.176855 1.871588 -3.640439
v 0.000000 1.912550 -3.640439
v 0.176855 1.871588 -3.640439
v -0.176855 1.871588 -5.798282
v 0.000000 1.912550 -5.798282
v 0.176855 1.871588 -5.798282
v -0.176855 1.871588 -7.956125
v 0.000000 1.912550 -7.956125
v 0.176855 1.871588 -7.956125
v -0.240014 1.756888 -7.956125
v 0.000000 1.756888 -7.956125
v 0.240014 1.756888 -7.956125
v -0.176855 1.642189 -7.956125
v 0.000000 1.601227 -7.956125
v 0.176855 1.642189 -7.956125
v -0.176855 1.642189 -5.798282
v 0.000000 1.601227 -5.798282
v 0.176855 1.642189 -5.798282
v 0.240014 1.756888 -5.798282
v -0.240014 1.756888 -5.798282
v -1.100286 -0.037472 -7.023971
v -0.975142 -0.067547 -7.023971
v -0.138334 1.646152 -7.023971
v -0.013190 1.616077 -7.023971
v -0.138334 1.646152 -7.717473
v -0.013190 1.616077 -7.717473
v -1.100286 -0.037472 -7.717473
v -0.975142 -0.067547 -7.717473
v -1.100286 -0.037472 -3.812869
v -0.975142 -0.067547 -3.812869
v -0.138334 1.646152 -3.812869
v -0.013190 1.616077 -3.812869
v -0.138334 1.646152 -4.506372
v -0.013190 1.616077 -4.506372
v -1.100286 -0.037472 -4.506372
v -0.975142 -0.067547 -4.506372
v 0.989923 -0.060414 -3.812869
v 1.115067 -0.030339 -3.812869
v 0.027993 1.623215 -3.812869
v 0.153137 1.653289 -3.812869
v 0.027993 1.623215 -4.506372
v 0.153137 1.653289 -4.506372
v 0.989923 -0.060414 -4.506372
v 1.115067 -0.030339 -4.506372
v 0.989923 -0.060414 -7.054718
v 1.115067 -0.030339 -7.054718
v 0.027993 1.623215 -7.054718
v 0.153137 1.653289 -7.054718
v 0.027993 1.623215 -7.748220
v 0.153137 1.653289 -7.748220
v 0.989923 -0.060414 -7.748220
v 1.115067 -0.030339 -7.748220
v 0.710446 0.680349 -7.613016
v 0.835541 0.710508 -7.613016
v 0.710446 0.680349 -3.973746
v 0.835541 0.710508 -3.973746
v 0.560558 0.943872 -3.973746
v 0.685653 0.974031 -3.973746
v 0.560558 0.943872 -7.613016
v 0.685653 0.974031 -7.613016
v -0.813515 0.720944 -7.613016
v -0.688323 0.690954 -7.613016
v -0.813515 0.720944 -3.973746
v -0.688323 0.690954 -3.973746
v -0.662442 0.984182 -3.973746
v -0.537250 0.954193 -3.973746
v -0.662442 0.984182 -7.613016
v -0.537250 0.954193 -7.613016
vt 0.375000 0.000000
vt 0.500000 0.000000
vt 0.625000 0.000000
vt 0.375000 0.125000
vt 0.500000 0.125000
vt 0.625000 0.125000
vt 0.375000 0.250000
vt 0.500000 0.250000
vt 0.625000 0.250000
vt 0.375000 0.375000
vt 0.500000 0.375000
vt 0.625000 0.375000
vt 0.375000 0.500000
vt 0.500000 0.500000
vt 0.625000 0.500000
vt 0.375000 0.625000
vt 0.500000 0.625000
vt 0.625000 0.625000
vt 0.375000 0.750000
vt 0.500000 0.750000
vt 0.625000 0.750000
vt 0.375000 0.875000
vt 0.500000 0.875000
vt 0.625000 0.875000
vt 0.375000 1.000000
vt 0.500000 1.000000
vt 0.625000 1.000000
vt 0.875000 0.000000
vt 0.750000 0.000000
vt 0.875000 0.125000
vt 0.750000 0.125000
vt 0.875000 0.250000
vt 0.750000 0.250000
vt 0.125000 0.000000
vt 0.250000 0.000000
vt 0.125000 0.125000
vt 0.250000 0.125000
vt 0.125000 0.250000
vt 0.250000 0.250000
vt 0.625000 0.250000
vt 0.375000 0.250000
vt 0.375000 0.000000
vt 0.625000 0.000000
vt 0.625000 0.500000
vt 0.375000 0.500000
vt 0.625000 0.750000
vt 0.375000 0.750000
vt 0.625000 1.000000
vt 0.375000 1.000000
vt 0.875000 0.000000
vt 0.875000 0.250000
vt 0.125000 0.250000
vt 0.125000 0.000000
vt 0.625000 0.250000
vt 0.375000 0.250000
vt 0.375000 0.000000
vt 0.625000 0.000000
vt 0.625000 0.500000
vt 0.375000 0.500000
vt 0.625000 0.750000
vt 0.375000 0.750000
vt 0.625000 1.000000
vt 0.375000 1.000000
vt 0.875000 0.000000
vt 0.875000 0.250000
vt 0.125000 0.250000
vt 0.125000 0.000000
vt 0.625000 0.250000
vt 0.375000 0.250000
vt 0.375000 0.000000
vt 0.625000 0.000000
vt 0.625000 0.500000
vt 0.375000 0.500000
vt 0.625000 0.750000
vt 0.375000 0.750000
vt 0.625000 1.000000
vt 0.375000 1.000000
vt 0.875000 0.000000
vt 0.875000 0.250000
vt 0.125000 0.250000
vt 0.125000 0.000000
vt 0.625000 0.250000
vt 0.375000 0.250000
vt 0.375000 0.000000
vt 0.625000 0.000000
vt 0.625000 0.500000
vt 0.375000 0.500000
vt 0.625000 0.750000
vt 0.375000 0.750000
vt 0.625000 1.000000
vt 0.375000 1.000000
vt 0.875000 0.000000
vt 0.875000 0.250000
vt 0.125000 0.250000
vt 0.125000 0.000000
vt 0.625000 0.250000
vt 0.375000 0.250000
vt 0.375000 0.000000
vt 0.625000 0.000000
vt 0.625000 0.500000
vt 0.375000 0.500000
vt 0.625000 0.750000
vt 0.375000 0.750000
vt 0.625000 1.000000
vt 0.375000 1.000000
vt 0.875000 0.000000
vt 0.875000 0.250000
vt 0.125000 0.250000
vt 0.125000 0.000000
vt 0.625000 0.250000
vt 0.375000 0.250000
vt 0.375000 0.000000
vt 0.625000 0.000000
vt 0.625000 0.500000
vt 0.375000 0.500000
vt 0.625000 0.750000
vt 0.375000 0.750000
vt 0.625000 1.000000
vt 0.375000 1.000000
vt 0.875000 0.000000
vt 0.875000 0.250000
vt 0.125000 0.250000
vt 0.125000 0.000000
vn 0.000000 0.000000 1.000000
vn 0.000000 0.000000 1.000000
vn 0.000000 0.000000 1.000000
vn 0.000000 0.000000 1.000000
vn 0.000000 0.000000 1.000000
vn 0.000000 0.000000 1.000000
vn 0.000000 0.000000 1.000000
vn 0.000001 0.000000 1.000000
vn 0.000000 0.000000 1.000000
vn -0.225642 0.974210 0.000000
vn 0.000000 1.000000 0.000000
vn 0.000000 1.000000 0.000000
vn -0.225642 0.974210 0.000000
vn 0.225642 0.974210 0.000000
vn 0.225642 0.974210 0.000000
vn 0.000000 1.000000 0.000000
vn -0.225642 0.974210 0.000000
vn 0.225642 0.974210 0.000000
vn 0.000001 0.000000 -1.000000
vn 0.000000 0.000000 -1.000000
vn 0.000000 0.000000 -1.000000
vn 0.000000 0.000000 -1.000000
vn 0.000000 0.000000 -1.000000
vn 0.000000 0.000000 -1.000000
vn 0.000000 0.000000 -1.000000
vn 0.000000 0.000000 -1.000000
vn 0.000000 0.000000 -1.000000
vn -0.225639 -0.974211 0.000000
vn 0.000000 -1.000000 0.000000
vn 0.000000 -1.000000 0.000000
vn -0.225639 -0.974211 0.000000
vn 0.225639 -0.974211 0.000000
vn 0.225639 -0.974211 0.000000
vn 0.000000 -1.000000 0.000000
vn -0.225639 -0.974211 0.000000
vn 0.225639 -0.974211 0.000000
vn 0.875976 -0.482355 0.000000
vn 0.875976 -0.482355 0.000000
vn 1.000000 0.000000 0.000000
vn 1.000000 0.000000 0.000000
vn 0.875976 -0.482355 0.000000
vn 1.000000 0.000000 0.000000
vn 0.875975 0.482356 0.000000
vn 0.875975 0.482356 0.000000
vn 0.875975 0.482356 0.000000
vn -0.875976 -0.482355 0.000000
vn -0.875976 -0.482355 0.000000
vn -1.000000 0.000000 0.000000
vn -1.000000 0.000000 0.000000
vn -0.875976 -0.482355 0.000000
vn -1.000000 0.000000 0.000000
vn -0.875975 0.482356 0.000000
vn -0.875975 0.482356 0.000000
vn -0.875975 0.482356 0.000000
vn 0.000001 0.000000 1.000000
vn 0.000001 0.000000 1.000000
vn 0.000001 0.000000 1.000000
vn 0.000001 0.000000 1.000000
vn 0.233668 0.972317 0.000000
vn 0.233668 0.972317 0.000000
vn 0.233668 0.972317 0.000000
vn 0.233668 0.972317 0.000000
vn -0.000001 0.000000 -1.000000
vn -0.000001 0.000000 -1.000000
vn -0.000001 0.000000 -1.000000
vn -0.000001 0.000000 -1.000000
vn -0.233671 -0.972316 0.000000
vn -0.233671 -0.972316 0.000000
vn -0.233671 -0.972316 0.000000
vn -0.233671 -0.972316 0.000000
vn 0.868269 -0.496093 0.000000
vn 0.868269 -0.496093 0.000000
vn 0.868269 -0.496093 0.000000
vn 0.868269 -0.496093 0.000000
vn -0.868269 0.496093 0.000000
vn -0.868269 0.496093 0.000000
vn -0.868269 0.496093 0.000000
vn -0.868269 0.496093 0.000000
vn 0.000000 0.000000 1.000000
vn 0.000000 0.000000 1.000000
vn 0.000000 0.000000 1.000000
vn 0.000000 0.000000 1.000000
vn 0.233668 0.972317 0.000000
vn 0.233668 0.972317 0.000000
vn 0.233668 0.972317 0.000000
vn 0.233668 0.972317 0.000000
vn 0.000000 0.000000 -1.000000
vn 0.000000 0.000000 -1.000000
vn 0.000000 0.000000 -1.000000
vn 0.000000 0.000000 -1.000000
vn -0.233671 -0.972316 0.000000
vn -0.233671 -0.972316 0.000000
vn -0.233671 -0.972316 0.000000
vn -0.233671 -0.972316 0.000000
vn 0.868269 -0.496093 0.000000
vn 0.868269 -0.496093 0.000000
vn 0.868269 -0.496093 0.000000
vn 0.868269 -0.496093 0.000000
vn -0.868269 0.496093 0.000000
vn -0.868269 0.496093 0.000000
vn -0.868269 0.496093 0.000000
vn -0.868269 0.496093 0.000000
vn 0.000001 0.000000 1.000000
vn 0.000001 0.000000 1.000000
vn 0.000001 0.000000 1.000000
vn 0.000001 0.000000 1.000000
vn -0.233663 0.972318 0.000000
vn -0.233663 0.972318 0.000000
vn -0.233663 0.972318 0.000000
vn -0.233663 0.972318 0.000000
vn 0.000000 0.000000 -1.000000
vn 0.000000 0.000000 -1.000000
vn 0.000000 0.000000 -1.000000
vn 0.000000 0.000000 -1.000000
vn 0.233666 -0.972317 0.000000
vn 0.233666 -0.972317 0.000000
vn 0.233666 -0.972317 0.000000
vn 0.233666 -0.972317 0.000000
vn 0.868275 0.496083 0.000000
vn 0.868275 0.496083 0.000000
vn 0.868275 0.496083 0.000000
vn 0.868275 0.496083 0.000000
vn -0.868275 -0.496083 0.000000
vn -0.868275 -0.496083 0.000000
vn -0.868275 -0.496083 0.000000
vn -0.868275 -0.496083 0.000000
vn 0.000000 0.000000 1.000000
vn 0.000000 0.000000 1.000000
vn 0.000000 0.000000 1.000000
vn 0.000000 0.000000 1.000000
vn -0.233663 0.972318 0.000000
vn -0.233663 0.972318 0.000000
vn -0.233663 0.972318 0.000000
vn -0.233663 0.972318 0.000000
vn 0.000000 0.000000 -1.000000
vn 0.000000 0.000000 -1.000000
vn 0.000000 0.000000 -1.000000
vn 0.000000 0.000000 -1.000000
vn 0.233666 -0.972317 0.000000
vn 0.233666 -0.972317 0.000000
vn 0.233666 -0.972317 0.000000
vn 0.233666 -0.972317 0.000000
vn 0.868275 0.496083 0.000000
vn 0.868275 0.496083 0.000000
vn 0.868275 0.496083 0.000000
vn 0.868275 0.496083 0.000000
vn -0.868275 -0.496083 0.000000
vn -0.868275 -0.496083 0.000000
vn -0.868275 -0.496083 0.000000
vn -0.868275 -0.496083 0.000000
vn 0.234376 -0.972146 0.000000
vn 0.234376 -0.972146 0.000000
vn 0.234376 -0.972146 0.000000
vn 0.234376 -0.972146 0.000000
vn 0.000000 0.000000 1.000000
vn 0.000000 0.000000 1.000000
vn 0.000000 0.000000 1.000000
vn 0.000000 0.000000 1.000000
vn -0.234375 0.972146 0.000000
vn -0.234375 0.972146 0.000000
vn -0.234375 0.972146 0.000000
vn -0.234375 0.972146 0.000000
vn 0.000001 0.000000 -1.000000
vn 0.000001 0.000000 -1.000000
vn 0.000001 0.000000 -1.000000
vn 0.000001 0.000000 -1.000000
vn 0.869230 0.494407 0.000000
vn 0.869230 0.494407 0.000000
vn 0.869230 0.494407 0.000000
vn 0.869230 0.494407 0.000000
vn -0.869231 -0.494407 0.000000
vn -0.869231 -0.494407 0.000000
vn -0.869231 -0.494407 0.000000
vn -0.869231 -0.494407 0.000000
vn -0.232957 -0.972487 0.000000
vn -0.232957 -0.972487 0.000000
vn -0.232957 -0.972487 0.000000
vn -0.232957 -0.972487 0.000000
vn 0.000000 0.000000 1.000000
vn 0.000000 0.000000 1.000000
vn 0.000000 0.000000 1.000000
vn 0.000000 0.000000 1.000000
vn 0.232957 0.972487 0.000000
vn 0.232957 0.972487 0.000000
vn 0.232957 0.972487 0.000000
vn 0.232957 0.972487 0.000000
vn -0.000001 0.000000 -1.000000
vn -0.000001 0.000000 -1.000000
vn -0.000001 0.000000 -1.000000
vn -0.000001 0.000000 -1.000000
vn 0.867317 -0.497756 0.000000
vn 0.867317 -0.497756 0.000000
vn 0.867317 -0.497756 0.000000
vn 0.867317 -0.497756 0.000000
vn -0.867317 0.497756 0.000000
vn -0.867317 0.497756 0.000000
vn -0.867317 0.497756 0.000000
vn -0.867317 0.497756 0.000000
s 1
g pCube10
usemtl initialShadingGroup
f 1/1/1 2/2/2 5/5/3 4/4/4
f 2/2/2 3/3/5 6/6/6 5/5/3
f 4/4/4 5/5/3 8/8/7 7/7/8
f 5/5/3 6/6/6 9/9/9 8/8/7
s 2
f 7/7/10 8/8/11 11/11/12 10/10/13
f 8/8/11 9/9/14 12/12/15 11/11/12
f 10/10/13 11/11/12 14/14/16 13/13/17
f 11/11/12 12/12/15 15/15/18 14/14/16
s 3
f 13/13/19 14/14/20 17/17/21 16/16/22
f 14/14/20 15/15/23 18/18/24 17/17/21
f 16/16/22 17/17/21 20/20/25 19/19/26
f 17/17/21 18/18/24 21/21/27 20/20/25
s 4
f 19/19/28 20/20/29 23/23/30 22/22/31
f 20/20/29 21/21/32 24/24/33 23/23/30
f 22/22/31 23/23/30 2/26/34 1/25/35
f 23/23/30 24/24/33 3/27/36 2/26/34
s 5
f 24/29/37 21/28/38 18/30/39 25/31/40
f 3/3/41 24/29/37 25/31/40 6/6/42
f 25/31/40 18/30/39 15/32/43 12/33/44
f 6/6/42 25/31/40 12/33/44 9/9/45
s 6
f 19/34/46 22/35/47 26/37/48 16/36/49
f 22/35/47 1/1/50 4/4/51 26/37/48
f 16/36/49 26/37/48 10/39/52 13/38/53
f 26/37/48 4/4/51 7/7/54 10/39/52
s off
f 30/40/55 29/41/56 27/42/57 28/43/58
f 32/44/59 31/45/60 29/41/61 30/40/62
f 34/46/63 33/47/64 31/45/65 32/44/66
f 28/48/67 27/49/68 33/47/69 34/46/70
f 30/40/71 28/43/72 34/50/73 32/51/74
f 27/42/75 29/41/76 31/52/77 33/53/78
f 38/54/79 37/55/80 35/56/81 36/57/82
f 40/58/83 39/59/84 37/55/85 38/54/86
f 42/60/87 41/61/88 39/59/89 40/58/90
f 36/62/91 35/63/92 41/61/93 42/60/94
f 38/54/95 36/57/96 42/64/97 40/65/98
f 35/56/99 37/55/100 39/66/101 41/67/102
f 46/68/103 45/69/104 43/70/105 44/71/106
f 48/72/107 47/73/108 45/69/109 46/68/110
f 50/74/111 49/75/112 47/73/113 48/72/114
f 44/76/115 43/77/116 49/75/117 50/74/118
f 46/68/119 44/71/120 50/78/121 48/79/122
f 43/70/123 45/69/124 47/80/125 49/81/126
f 54/82/127 53/83/128 51/84/129 52/85/130
f 56/86/131 55/87/132 53/83/133 54/82/134
f 58/88/135 57/89/136 55/87/137 56/86/138
f 52/90/139 51/91/140 57/89/141 58/88/142
f 54/82/143 52/85/144 58/92/145 56/93/146
f 51/84/147 53/83/148 55/94/149 57/95/150
f 62/96/151 61/97/152 59/98/153 60/99/154
f 64/100/155 63/101/156 61/97/157 62/96/158
f 66/102/159 65/103/160 63/101/161 64/100/162
f 60/104/163 59/105/164 65/103/165 66/102/166
f 62/96/167 60/99/168 66/106/169 64/107/170
f 59/98/171 61/97/172 63/108/173 65/109/174
f 70/110/175 69/111/176 67/112/177 68/113/178
f 72/114/179 71/115/180 69/111/181 70/110/182
f 74/116/183 73/117/184 71/115/185 72/114/186
f 68/118/187 67/119/188 73/117/189 74/116/190
f 70/110/191 68/113/192 74/120/193 72/121/194
f 67/112/195 69/111/196 71/122/197 73/123/198
