# This file uses centimeters as units for non-parametric coordinates.

mtllib obs3.mtl
g default
v -3.355583 -0.147509 2.030572
v -3.455611 -0.147509 2.889515
v -3.257480 -0.147509 3.593675
v -2.675669 -0.147509 4.228471
v -2.280997 -0.147509 4.370586
v -1.851425 -0.147509 4.371027
v -1.429000 -0.147509 4.229752
v -1.055072 -0.147509 3.960589
v -0.951468 -0.147509 3.377072
v -1.891163 -0.147509 2.816975
v -3.355583 0.342113 2.030572
v -3.455611 0.342113 2.889515
v -3.257480 0.342113 3.593675
v -2.675669 0.342113 4.228471
v -2.280997 0.342113 4.370586
v -1.851425 0.342113 4.371027
v -1.429000 0.342113 4.229752
v -1.055072 0.342113 3.960589
v -0.951468 0.342113 3.377072
v -1.891163 0.342113 2.816975
v -2.675913 -0.147509 2.381873
v -2.675913 0.342113 2.381873
vt 0.626409 0.064408
vt 0.591842 0.029841
vt 0.548284 0.007647
vt 0.500000 -0.000000
vt 0.451716 0.007647
vt 0.408159 0.029841
vt 0.373591 0.064409
vt 0.351397 0.107966
vt 0.343750 0.156250
vt 0.351397 0.204534
vt 0.387500 0.312500
vt 0.400000 0.312500
vt 0.412500 0.312500
vt 0.425000 0.312500
vt 0.437500 0.312500
vt 0.450000 0.312500
vt 0.462500 0.312500
vt 0.475000 0.312500
vt 0.487500 0.312500
vt 0.500000 0.312500
vt 0.387500 0.688440
vt 0.400000 0.688440
vt 0.412500 0.688440
vt 0.425000 0.688440
vt 0.437500 0.688440
vt 0.450000 0.688440
vt 0.462500 0.688440
vt 0.475000 0.688440
vt 0.487500 0.688440
vt 0.500000 0.688440
vt 0.351397 0.795466
vt 0.343750 0.843750
vt 0.351397 0.892034
vt 0.373591 0.935591
vt 0.408159 0.970159
vt 0.451716 0.992353
vt 0.500000 1.000000
vt 0.548284 0.992353
vt 0.591841 0.970159
vt 0.626409 0.935591
vt 0.500000 0.150000
vt 0.500000 0.837500
vn -0.993287 0.000000 -0.115674
vn -0.998036 0.000000 0.062638
vn -0.998036 0.000000 0.062638
vn -0.993287 0.000000 -0.115674
vn -0.864092 0.000000 0.503334
vn -0.864092 0.000000 0.503334
vn -0.622604 0.000000 0.782537
vn -0.622604 0.000000 0.782537
vn -0.170423 0.000000 0.985371
vn -0.170423 0.000000 0.985371
vn 0.163086 0.000000 0.986612
vn 0.163086 0.000000 0.986612
vn 0.458129 0.000000 0.888885
vn 0.458129 0.000000 0.888885
vn 0.872493 0.000000 0.488627
vn 0.872493 0.000000 0.488627
vn 0.807266 0.000000 -0.590188
vn 0.807266 0.000000 -0.590188
vn 0.511993 0.000000 -0.858989
vn 0.511993 0.000000 -0.858989
vn 0.000000 -1.000000 0.000000
vn 0.000000 -1.000000 0.000000
vn -0.000000 -1.000000 0.000000
vn 0.000000 -1.000000 0.000000
vn 0.000000 -1.000000 0.000000
vn 0.000000 -1.000000 0.000000
vn 0.000000 -1.000000 0.000000
vn 0.000000 -1.000000 0.000000
vn 0.000000 -1.000000 0.000000
vn -0.000000 -1.000000 0.000000
vn -0.000001 -1.000000 0.000001
vn 0.000000 1.000000 -0.000000
vn 0.000000 1.000000 -0.000000
vn 0.000000 1.000000 -0.000000
vn 0.000000 1.000000 -0.000000
vn 0.000000 1.000000 -0.000000
vn 0.000000 1.000000 -0.000000
vn 0.000000 1.000000 -0.000000
vn 0.000000 1.000000 -0.000000
vn 0.000000 1.000000 -0.000000
vn 0.000000 1.000000 -0.000000
vn 0.000000 1.000000 -0.000000
vn 0.473106 0.000000 -0.881006
vn 0.473106 0.000000 -0.881006
vn 0.473106 0.000000 -0.881006
vn 0.473106 0.000000 -0.881006
vn 0.473106 0.000000 -0.881006
vn 0.473106 0.000000 -0.881006
s 1
g pasted__pCylinder1 group
usemtl initialShadingGroup
f 1/11/1 2/12/2 12/22/3 11/21/4
f 2/12/2 3/13/5 13/23/6 12/22/3
f 3/13/5 4/14/7 14/24/8 13/23/6
f 4/14/7 5/15/9 15/25/10 14/24/8
f 5/15/9 6/16/11 16/26/12 15/25/10
f 6/16/11 7/17/13 17/27/14 16/26/12
f 7/17/13 8/18/15 18/28/16 17/27/14
f 8/18/15 9/19/17 19/29/18 18/28/16
f 9/19/17 10/20/19 20/30/20 19/29/18
s 2
f 2/2/21 1/1/22 21/41/23
f 3/3/24 2/2/21 21/41/23
f 4/4/25 3/3/24 21/41/23
f 5/5/26 4/4/25 21/41/23
f 6/6/27 5/5/26 21/41/23
f 7/7/28 6/6/27 21/41/23
f 8/8/29 7/7/28 21/41/23
f 9/9/30 8/8/29 21/41/23
f 10/10/31 9/9/30 21/41/23
s 3
f 11/40/32 12/39/33 22/42/34
f 12/39/33 13/38/35 22/42/34
f 13/38/35 14/37/36 22/42/34
f 14/37/36 15/36/37 22/42/34
f 15/36/37 16/35/38 22/42/34
f 16/35/38 17/34/39 22/42/34
f 17/34/39 18/33/40 22/42/34
f 18/33/40 19/32/41 22/42/34
f 19/32/41 20/31/42 22/42/34
s off
f 11/40/43 22/42/44 20/30/45 10/10/46 21/41/47 1/11/48
