# This file uses centimeters as units for non-parametric coordinates.

mtllib Pond.mtl
g default
v 26.498280 -1.000000 -8.609806
v 22.540779 -1.000000 -16.376829
v 16.376839 -1.000000 -22.540775
v 8.609814 -1.000000 -26.498270
v 0.000003 -1.000000 -27.861927
v -8.609808 -1.000000 -26.498264
v -16.376829 -1.000000 -22.540768
v -22.540768 -1.000000 -16.376825
v -26.498264 -1.000000 -8.609802
v -27.861919 -1.000000 0.000005
v -26.498264 -1.000000 8.609814
v -22.540766 -1.000000 16.376831
v -16.376825 -1.000000 22.540773
v -8.609803 -1.000000 26.498266
v 0.000002 -1.000000 27.861927
v 8.609808 -1.000000 26.498266
v 16.376829 -1.000000 22.540773
v 22.540771 -1.000000 16.376831
v 26.498259 -1.000000 8.609810
v 27.861919 -1.000000 0.000005
v 16.475945 1.469506 -4.892311
v 15.105599 1.469506 -9.232973
v 9.682843 1.469506 -11.000559
v 5.173480 1.469506 -13.664271
v 0.449868 1.469506 -14.465855
v -5.061011 1.469506 -13.439337
v -8.726873 1.469506 -10.213292
v -13.024957 1.469506 -7.377274
v -15.576200 1.469506 -3.430244
v -16.377785 1.469506 1.630768
v -13.326868 1.469506 5.285945
v -9.538496 1.469506 7.770908
v -6.421307 1.469506 10.888092
v -3.317778 1.469506 13.383102
v 0.955967 1.469506 14.353388
v 5.342178 1.469506 13.776736
v 9.626606 1.469506 11.787825
v 13.249890 1.469506 8.164540
v 15.576201 1.469506 3.598946
v 17.165051 1.469506 -0.168697
v 0.000002 -0.637269 2.136868
vt 0.975528 0.654508
vt 0.904509 0.793893
vt 0.771080 0.665692
vt 0.795671 0.587796
vt 0.793893 0.904509
vt 0.673765 0.697412
vt 0.654509 0.975528
vt 0.592841 0.745214
vt 0.500000 1.000000
vt 0.508073 0.759599
vt 0.345491 0.975528
vt 0.409177 0.741177
vt 0.206107 0.904508
vt 0.343391 0.683284
vt 0.095491 0.793893
vt 0.266259 0.632390
vt 0.024472 0.654508
vt 0.220475 0.561558
vt -0.000000 0.500000
vt 0.206090 0.470735
vt 0.024472 0.345491
vt 0.260841 0.405140
vt 0.095491 0.206107
vt 0.328826 0.360546
vt 0.206107 0.095492
vt 0.384766 0.304606
vt 0.345492 0.024472
vt 0.440460 0.259832
vt 0.500000 0.000000
vt 0.517155 0.242419
vt 0.654508 0.024472
vt 0.595869 0.252768
vt 0.793893 0.095492
vt 0.672755 0.288460
vt 0.904508 0.206107
vt 0.737778 0.353482
vt 0.975528 0.345491
vt 0.779525 0.435415
vt 1.000000 0.500000
vt 0.808038 0.503027
vt 0.500000 0.461653
vn 0.221057 0.973091 -0.065020
vn 0.157221 0.977581 -0.140060
vn 0.161453 0.977346 -0.136853
vn 0.221592 0.973175 -0.061869
vn 0.100433 0.980982 -0.166092
vn 0.100479 0.980976 -0.166104
vn 0.057998 0.983302 -0.172491
vn 0.060518 0.983295 -0.171667
vn -0.002174 0.983597 -0.180365
vn -0.001048 0.983590 -0.180416
vn -0.060666 0.984374 -0.165308
vn -0.064963 0.984427 -0.163352
vn -0.104582 0.984237 -0.142622
vn -0.105820 0.984230 -0.141749
vn -0.139337 0.983198 -0.117924
vn -0.141437 0.983078 -0.116419
vn -0.186694 0.980124 -0.067093
vn -0.188974 0.979960 -0.062985
vn -0.199631 0.979794 0.012322
vn -0.197490 0.979920 0.027485
vn -0.164201 0.982566 0.087186
vn -0.154156 0.983576 0.093888
vn -0.125270 0.986146 0.108734
vn -0.122329 0.986408 0.109702
vn -0.100498 0.986810 0.126910
vn -0.099952 0.986785 0.127533
vn -0.060264 0.985491 0.158670
vn -0.059951 0.985481 0.158852
vn -0.004167 0.983893 0.178711
vn -0.002316 0.983856 0.178948
vn 0.054411 0.982706 0.176999
vn 0.056157 0.982674 0.176630
vn 0.110080 0.981712 0.155316
vn 0.112106 0.981673 0.154110
vn 0.157351 0.980604 0.116859
vn 0.159828 0.980536 0.114036
vn 0.192814 0.978429 0.074165
vn 0.194012 0.978309 0.072600
vn 0.218671 0.975765 0.008117
vn 0.218306 0.975827 0.010169
vn -0.115296 0.992954 0.027360
vn -0.079747 0.993744 0.078186
vn 0.003057 0.999983 -0.005035
vn -0.051908 0.991329 0.120716
vn -0.043668 0.992056 0.117974
vn 0.002211 0.992035 0.125943
vn 0.050511 0.991760 0.117730
vn 0.083802 0.990422 0.109737
vn 0.094076 0.991421 0.090745
vn 0.118563 0.991986 0.043671
vn 0.128102 0.991603 -0.017680
vn 0.126237 0.984194 -0.124205
vn 0.122902 0.979716 -0.158277
vn 0.127731 0.981509 -0.142565
vn 0.071332 0.983996 -0.163290
vn 0.005068 0.985375 -0.170327
vn -0.048863 0.986527 -0.156132
vn -0.092024 0.988020 -0.123890
vn -0.119603 0.989356 -0.082888
vn -0.128357 0.989969 -0.059048
vn -0.122656 0.992429 -0.006317
s 1
g pCylinder1
usemtl initialShadingGroup
f 1/1/1 2/2/2 22/3/3 21/4/4
f 2/2/2 3/5/5 23/6/6 22/3/3
f 3/5/5 4/7/7 24/8/8 23/6/6
f 4/7/7 5/9/9 25/10/10 24/8/8
f 5/9/9 6/11/11 26/12/12 25/10/10
f 6/11/11 7/13/13 27/14/14 26/12/12
f 7/13/13 8/15/15 28/16/16 27/14/14
f 8/15/15 9/17/17 29/18/18 28/16/16
f 9/17/17 10/19/19 30/20/20 29/18/18
f 10/19/19 11/21/21 31/22/22 30/20/20
f 11/21/21 12/23/23 32/24/24 31/22/22
f 12/23/23 13/25/25 33/26/26 32/24/24
f 13/25/25 14/27/27 34/28/28 33/26/26
f 14/27/27 15/29/29 35/30/30 34/28/28
f 15/29/29 16/31/31 36/32/32 35/30/30
f 16/31/31 17/33/33 37/34/34 36/32/32
f 17/33/33 18/35/35 38/36/36 37/34/34
f 18/35/35 19/37/37 39/38/38 38/36/36
f 19/37/37 20/39/39 40/40/40 39/38/38
f 20/39/39 1/1/1 21/4/4 40/40/40
s 2
f 21/4/41 22/3/42 41/41/43
f 22/3/42 23/6/44 41/41/43
f 23/6/44 24/8/45 41/41/43
f 24/8/45 25/10/46 41/41/43
f 25/10/46 26/12/47 41/41/43
f 26/12/47 27/14/48 41/41/43
f 27/14/48 28/16/49 41/41/43
f 28/16/49 29/18/50 41/41/43
f 29/18/50 30/20/51 41/41/43
f 30/20/51 31/22/52 41/41/43
f 31/22/52 32/24/53 41/41/43
f 32/24/53 33/26/54 41/41/43
f 33/26/54 34/28/55 41/41/43
f 34/28/55 35/30/56 41/41/43
f 35/30/56 36/32/57 41/41/43
f 36/32/57 37/34/58 41/41/43
f 37/34/58 38/36/59 41/41/43
f 38/36/59 39/38/60 41/41/43
f 39/38/60 40/40/61 41/41/43
f 40/40/61 21/4/41 41/41/43
