# This file uses centimeters as units for non-parametric coordinates.

mtllib Rock_Medium.mtl
g default
v 0.717573 0.008443 -3.678332
v 1.135508 -0.012917 -2.538809
v 1.222260 0.653686 -3.823228
v 1.116383 0.891147 -2.833789
v 1.721554 0.991348 -4.176638
v 1.775795 0.810958 -3.310418
v 1.651001 -0.033882 -4.368216
v 2.297206 -0.012917 -3.161591
v 0.746243 0.592978 -3.222714
v 0.581133 -0.069429 -3.057777
v 1.755980 1.035598 -3.665929
v 2.081324 -0.024880 -3.808018
vt 0.375000 0.000000
vt 0.625000 0.000000
vt 0.375000 0.250000
vt 0.625000 0.250000
vt 0.375000 0.500000
vt 0.625000 0.500000
vt 0.375000 0.750000
vt 0.625000 0.750000
vt 0.375000 1.000000
vt 0.625000 1.000000
vt 0.875000 0.000000
vt 0.875000 0.250000
vt 0.125000 0.000000
vt 0.125000 0.250000
vt 0.505876 0.250000
vt 0.494534 0.000000
vt 0.494534 1.000000
vt 0.499929 0.500000
vt 0.482338 0.750000
vn -0.914997 0.345343 0.208610
vn -0.901504 0.337696 0.270649
vn -0.725533 0.255255 0.639098
vn -0.725533 0.255255 0.639098
vn -0.608341 0.768545 0.198142
vn -0.608341 0.768545 0.198142
vn -0.608341 0.768545 0.198142
vn -0.608341 0.768545 0.198142
vn 0.900186 0.173847 -0.399303
vn 0.916524 0.274021 -0.291369
vn 0.917137 0.285727 -0.277884
vn 0.900186 0.173847 -0.399303
vn 0.011390 -0.999649 -0.023900
vn 0.008191 -0.999337 -0.035464
vn 0.037006 -0.996928 0.069029
vn 0.494066 0.358045 0.792277
vn 0.494066 0.358045 0.792277
vn 0.494066 0.358045 0.792277
vn 0.494066 0.358045 0.792277
vn -0.603420 0.229137 -0.763794
vn -0.603420 0.229137 -0.763793
vn -0.603420 0.229137 -0.763793
vn -0.603420 0.229137 -0.763793
vn -0.220888 0.942743 -0.249890
vn -0.220888 0.942743 -0.249890
vn -0.220888 0.942743 -0.249890
vn -0.220888 0.942743 -0.249890
vn -0.854024 0.345232 -0.389176
vn -0.854024 0.345232 -0.389176
vn -0.021332 -0.999246 0.032442
vn -0.001175 -0.999348 -0.036089
vn 0.000884 -0.999071 -0.043081
vn 0.904962 0.406202 -0.126662
vn 0.904962 0.406202 -0.126662
s 1
g pCube7
usemtl initialShadingGroup
f 9/15/1 10/16/2 2/2/3 4/4/4
s off
f 3/3/5 6/6/6 11/18/7 5/5/8
s 2
f 5/5/9 11/18/10 12/19/11 7/7/12
s 3
f 10/17/13 8/8/14 2/10/15
s off
f 2/2/16 8/11/17 6/12/18 4/4/19
f 7/13/20 1/1/21 3/3/22 5/14/23
f 3/3/24 9/15/25 4/4/26 6/6/27
s 1
f 1/1/28 10/16/2 9/15/1 3/3/29
s 3
f 7/7/30 12/19/31 1/9/32
s 2
f 12/19/11 11/18/10 6/6/33 8/8/34
s 3
f 1/9/32 12/19/31 8/8/14 10/17/13
