# This file uses centimeters as units for non-parametric coordinates.

mtllib Rock_Big.mtl
g default
v 4.406007 0.022721 -1.331157
v 3.336134 0.155635 -3.237804
v 3.619186 1.433097 -1.975238
v 3.312526 1.313885 -3.142748
v 3.304699 1.022301 -1.434700
v 2.085501 1.023931 -1.966359
v 2.863404 0.022423 -0.711306
v 1.642481 0.023931 -1.684402
v 5.190962 0.011465 -1.990613
v 5.223130 -0.017748 -3.227863
v 4.519131 1.887921 -3.105589
v 4.514498 2.280245 -2.367170
v 1.291644 -0.009080 -2.779078
v 2.420389 0.170205 -4.350440
v 2.247168 1.011454 -3.215158
v 2.584974 0.866123 -4.062944
v 4.207641 1.056703 -3.817459
v 4.521699 0.008347 -4.611395
vt 0.375000 0.000000
vt 0.625000 0.000000
vt 0.375000 0.250000
vt 0.625000 0.250000
vt 0.375000 0.500000
vt 0.625000 0.500000
vt 0.375000 0.750000
vt 0.625000 0.750000
vt 0.375000 1.000000
vt 0.625000 1.000000
vt 0.875000 0.000000
vt 0.875000 0.250000
vt 0.125000 0.000000
vt 0.125000 0.250000
vt 0.375000 0.000000
vt 0.625000 0.000000
vt 0.625000 0.250000
vt 0.375000 0.250000
vt 0.625000 0.000000
vt 0.875000 0.000000
vt 0.875000 0.250000
vt 0.625000 0.250000
vt 0.625000 0.250000
vt 0.625000 0.000000
vn 0.949188 0.310926 -0.048660
vn 0.949188 0.310926 -0.048660
vn 0.949188 0.310926 -0.048660
vn 0.949188 0.310926 -0.048660
vn -0.388586 0.920145 0.048313
vn -0.428408 0.903500 0.012417
vn -0.253506 0.953731 0.161651
vn -0.253506 0.953731 0.161651
vn -0.437586 0.550788 0.710740
vn -0.437586 0.550788 0.710740
vn -0.437586 0.550788 0.710740
vn -0.437586 0.550788 0.710740
vn 0.006146 -0.998654 -0.051505
vn 0.006146 -0.998654 -0.051505
vn 0.006146 -0.998654 -0.051505
vn 0.006146 -0.998654 -0.051505
vn -0.354767 0.549226 -0.756631
vn -0.762859 0.458345 -0.456032
vn -0.762859 0.458345 -0.456032
vn -0.358675 0.549066 -0.754903
vn 0.377907 0.497265 0.780970
vn 0.359962 0.419164 0.833504
vn 0.357713 0.410045 0.838990
vn 0.377907 0.497265 0.780970
vn -0.071208 -0.997417 -0.009396
vn -0.071208 -0.997417 -0.009396
vn -0.071208 -0.997417 -0.009396
vn -0.071208 -0.997417 -0.009396
vn -0.007592 0.526448 -0.850173
vn -0.007592 0.526448 -0.850173
vn -0.570225 0.811542 -0.127449
vn -0.570225 0.811542 -0.127449
vn 0.349291 0.376903 0.857869
vn 0.349291 0.376903 0.857869
vn 0.072801 -0.996786 -0.033447
vn 0.072801 -0.996786 -0.033447
vn 0.072801 -0.996786 -0.033447
vn 0.072801 -0.996786 -0.033447
vn -0.811909 0.581257 0.054256
vn -0.811909 0.581257 0.054256
vn -0.811909 0.581257 0.054256
vn -0.811909 0.581257 0.054256
vn -0.262147 0.955626 -0.134381
vn -0.209447 0.895290 -0.393176
vn -0.225480 0.918472 -0.324912
vn -0.262147 0.955626 -0.134381
vn -0.169163 0.825173 -0.538956
vn -0.169163 0.825173 -0.538956
vn 0.744518 0.418030 -0.520523
vn 0.744518 0.418030 -0.520523
vn 0.744518 0.418030 -0.520523
vn 0.744518 0.418030 -0.520523
vn -0.081422 -0.996010 0.036524
vn -0.081422 -0.996010 0.036524
vn -0.081422 -0.996010 0.036524
vn -0.081422 -0.996010 0.036524
s off
g pCube8
usemtl initialShadingGroup
f 9/15/1 10/16/2 11/17/3 12/18/4
s 1
f 3/3/5 4/4/6 6/6/7 5/5/8
s off
f 5/5/9 6/6/10 8/8/11 7/7/12
f 7/7/13 8/8/14 2/10/15 1/9/16
s 2
f 14/19/17 13/20/18 15/21/19 16/22/20
s 3
f 7/13/21 1/1/22 3/3/23 5/14/24
s off
f 1/1/25 2/2/26 10/16/27 9/15/28
s 2
f 14/19/17 16/22/20 17/23/29 18/24/30
s 1
f 4/4/6 3/3/5 12/18/31 11/17/32
s 3
f 3/3/23 1/1/22 9/15/33 12/18/34
s off
f 2/2/35 8/11/36 13/20/37 14/19/38
f 8/11/39 6/12/40 15/21/41 13/20/42
s 4
f 6/12/43 4/4/44 16/22/45 15/21/46
f 4/4/44 11/17/47 17/23/48 16/22/45
s off
f 11/17/49 10/16/50 18/24/51 17/23/52
f 10/16/53 2/2/54 14/19/55 18/24/56
