# This file uses centimeters as units for non-parametric coordinates.

mtllib Rock_Medium2.mtl
g default
v -0.755768 0.008363 -2.569711
v -0.050085 -0.012996 -1.582192
v -0.491880 0.629809 -2.430951
v -0.146898 0.891067 -1.861487
v 0.035355 0.655186 -2.936955
v 0.366584 0.987004 -2.491250
v -0.039192 -0.033962 -3.482809
v 0.904384 -0.012996 -2.491250
vt 0.375000 0.000000
vt 0.625000 0.000000
vt 0.375000 0.250000
vt 0.625000 0.250000
vt 0.375000 0.500000
vt 0.625000 0.500000
vt 0.375000 0.750000
vt 0.625000 0.750000
vt 0.375000 1.000000
vt 0.625000 1.000000
vt 0.875000 0.000000
vt 0.875000 0.250000
vt 0.125000 0.000000
vt 0.125000 0.250000
vn -0.830598 0.140606 0.538830
vn -0.830598 0.140606 0.538830
vn -0.830598 0.140606 0.538830
vn -0.830598 0.140606 0.538830
vn -0.386475 0.885011 -0.259602
vn -0.386475 0.885011 -0.259602
vn -0.386475 0.885011 -0.259602
vn -0.386475 0.885011 -0.259602
vn 0.639470 0.389566 -0.662810
vn 0.639470 0.389565 -0.662810
vn 0.639470 0.389566 -0.662810
vn 0.639470 0.389566 -0.662810
vn -0.013382 -0.999851 0.010952
vn -0.013382 -0.999851 0.010952
vn -0.013382 -0.999851 0.010952
vn -0.013382 -0.999851 0.010952
vn 0.674845 0.322299 0.663858
vn 0.674845 0.322299 0.663858
vn 0.674845 0.322299 0.663858
vn 0.674845 0.322299 0.663858
vn -0.659009 0.474862 -0.583277
vn -0.659009 0.474862 -0.583277
vn -0.659009 0.474862 -0.583277
vn -0.659009 0.474862 -0.583277
s off
g pCube5
usemtl initialShadingGroup
f 1/1/1 2/2/2 4/4/3 3/3/4
f 3/3/5 4/4/6 6/6/7 5/5/8
f 5/5/9 6/6/10 8/8/11 7/7/12
f 7/7/13 8/8/14 2/10/15 1/9/16
f 2/2/17 8/11/18 6/12/19 4/4/20
f 7/13/21 1/1/22 3/3/23 5/14/24
