# This file uses centimeters as units for non-parametric coordinates.

mtllib Rock_Small.mtl
g default
v -0.605022 0.002252 -0.988877
v -0.217512 0.002252 -1.317520
v -0.758948 0.414467 -1.218237
v -0.449208 0.430123 -1.335536
v -0.824032 0.302607 -1.464320
v -0.621022 0.298502 -1.670207
v -1.076434 0.002252 -1.424087
v -0.656011 0.002252 -1.932361
vt 0.375000 0.000000
vt 0.625000 0.000000
vt 0.375000 0.250000
vt 0.625000 0.250000
vt 0.375000 0.500000
vt 0.625000 0.500000
vt 0.375000 0.750000
vt 0.625000 0.750000
vt 0.375000 1.000000
vt 0.625000 1.000000
vt 0.875000 0.000000
vt 0.875000 0.250000
vt 0.125000 0.000000
vt 0.125000 0.250000
vn 0.476144 0.442357 0.760005
vn 0.476144 0.442357 0.760005
vn 0.476144 0.442357 0.760005
vn 0.476144 0.442357 0.760005
vn -0.211953 0.929099 -0.303067
vn -0.211953 0.929099 -0.303067
vn -0.211953 0.929099 -0.303067
vn -0.211953 0.929100 -0.303067
vn -0.642385 0.519148 -0.563761
vn -0.642385 0.519148 -0.563761
vn -0.642385 0.519148 -0.563761
vn -0.642385 0.519148 -0.563761
vn -0.000000 -1.000000 -0.000000
vn -0.000000 -1.000000 -0.000000
vn -0.000000 -1.000000 -0.000000
vn -0.000000 -1.000000 -0.000000
vn 0.751236 0.384858 -0.536217
vn 0.751236 0.384858 -0.536217
vn 0.751236 0.384858 -0.536217
vn 0.751236 0.384858 -0.536217
vn -0.769896 0.316135 0.554363
vn -0.769896 0.316135 0.554363
vn -0.769896 0.316135 0.554363
vn -0.769896 0.316135 0.554363
s off
g pCube6
usemtl initialShadingGroup
f 1/1/1 2/2/2 4/4/3 3/3/4
f 3/3/5 4/4/6 6/6/7 5/5/8
f 5/5/9 6/6/10 8/8/11 7/7/12
f 7/7/13 8/8/14 2/10/15 1/9/16
f 2/2/17 8/11/18 6/12/19 4/4/20
f 7/13/21 1/1/22 3/3/23 5/14/24
